HIERARCHY
ROOT Hips
{
	OFFSET 0.0000 0.0000 0.0000
	CHANNELS 6 Xposition Yposition Zposition Zrotation Xrotation Yrotation
	JOINT Ab
	{
		OFFSET -0.0000 8.0846 -0.0000
		CHANNELS 3 Zrotation Xrotation Yrotation
		JOINT Chest
		{
			OFFSET -0.0000 25.0068 -0.0000
			CHANNELS 3 Zrotation Xrotation Yrotation
			JOINT Neck
			{
				OFFSET -0.0000 25.0068 0.0000
				CHANNELS 3 Zrotation Xrotation Yrotation
				JOINT Head
				{
					OFFSET -0.0000 10.7556 0.0000
					CHANNELS 3 Zrotation Xrotation Yrotation
					End Site
					{
						OFFSET -0.0000 16.6222 0.0000
					}
				}
			}
			JOINT LeftCollar
			{
				OFFSET -0.0000 25.0068 0.0000
				CHANNELS 3 Zrotation Xrotation Yrotation
				JOINT LeftShoulder
				{
					OFFSET 19.5556 -0.0000 0.0000
					CHANNELS 3 Zrotation Xrotation Yrotation
					JOINT LeftElbow
					{
						OFFSET 27.1828 0.0000 0.0000
						CHANNELS 3 Zrotation Xrotation Yrotation
						JOINT LeftWrist
						{
							OFFSET 23.3157 0.0000 0.0000
							CHANNELS 3 Zrotation Xrotation Yrotation
							End Site
							{
								OFFSET 0.0000 -14.6667 0.0000
							}
						}
					}
				}
			}
			JOINT RightCollar
			{
				OFFSET -0.0000 25.0068 0.0000
				CHANNELS 3 Zrotation Xrotation Yrotation
				JOINT RightShoulder
				{
					OFFSET -19.5556 0.0000 0.0000
					CHANNELS 3 Zrotation Xrotation Yrotation
					JOINT RightElbow
					{
						OFFSET -27.1828 0.0000 0.0000
						CHANNELS 3 Zrotation Xrotation Yrotation
						JOINT RightWrist
						{
							OFFSET -23.3157 0.0000 0.0000
							CHANNELS 3 Zrotation Xrotation Yrotation
							End Site
							{
								OFFSET -0.0000 -14.6667 0.0000
							}
						}
					}
				}
			}
		}
	}
	JOINT LeftHip
	{
		OFFSET 11.7333 0.0000 0.0000
		CHANNELS 3 Zrotation Xrotation Yrotation
		JOINT LeftKnee
		{
			OFFSET -0.0000 -40.8688 0.0000
			CHANNELS 3 Zrotation Xrotation Yrotation
			JOINT LeftAnkle
			{
				OFFSET -0.0000 -44.4337 0.0000
				CHANNELS 3 Zrotation Xrotation Yrotation
				End Site
				{
					OFFSET -0.0000 -4.8889 16.6222
				}
			}
		}
	}
	JOINT RightHip
	{
		OFFSET -11.7333 0.0000 0.0000
		CHANNELS 3 Zrotation Xrotation Yrotation
		JOINT RightKnee
		{
			OFFSET -0.0000 -40.8688 0.0000
			CHANNELS 3 Zrotation Xrotation Yrotation
			JOINT RightAnkle
			{
				OFFSET -0.0000 -44.4337 0.0000
				CHANNELS 3 Zrotation Xrotation Yrotation
				End Site
				{
					OFFSET -0.0000 -4.8889 16.6222
				}
			}
		}
	}
}
MOTION
Frames: 13
Frame Time: 0.010000
2.5835 88.1640 61.9845 1.4794 359.1129 182.0718 3.9617 7.4668 359.9388 354.7013 4.2359 0.3758 6.1304 339.7393 359.8704 357.4578 10.5313 359.0046 341.5197 358.0436 11.9379 299.4469 26.5550 6.7122 16.6986 353.8388 317.8183 85.2791 354.7072 345.0978 18.2732 359.1153 354.5963 36.0360 47.3375 31.6730 328.1557 348.5475 39.2666 272.2267 347.7430 4.3533 0.5404 351.8226 357.8572 357.4169 19.6604 355.6667 357.5564 347.8280 24.1712 3.6680 342.9407 2.0760 359.5154 30.4074 10.4247 353.9200 341.4094 335.1312 
2.5840 87.9847 61.3468 1.6124 359.4803 181.9538 3.7447 7.5389 359.8748 354.7551 4.2934 0.3120 6.2429 339.5694 359.8420 357.7438 10.8387 358.9251 341.6133 358.0767 11.7293 299.2555 25.6419 7.1350 16.3009 353.9715 318.0198 85.1354 354.6000 344.3635 18.3129 359.1291 354.6026 34.7087 47.6097 32.7898 328.5423 348.6756 39.1502 272.8445 347.7436 5.0347 0.8140 352.4256 358.0551 357.1872 20.1800 355.4848 357.7298 347.0911 24.3337 3.8611 342.5460 2.2010 359.6421 32.5170 10.4673 353.5612 340.7234 334.7411 
2.5363 87.8169 60.7109 1.5756 359.7956 181.8897 3.4002 7.5384 359.8000 354.7965 4.3977 0.2266 6.2768 339.3490 359.7775 358.0888 11.1767 358.8172 341.5696 358.0916 11.5977 299.1798 25.6809 7.4399 16.4263 353.8152 318.4046 84.9697 354.6716 344.2661 18.4015 359.1419 354.6177 33.7199 47.6411 33.5119 329.0126 348.8415 39.2394 273.5364 347.7599 6.0171 0.8496 353.1050 358.1953 357.0285 20.3787 355.5301 358.0930 346.6331 24.3135 3.7971 342.0489 2.1226 359.7618 34.7049 10.4731 352.1696 341.1237 334.5395 
2.4658 87.6520 60.0830 1.4347 0.0773 181.8842 3.0658 7.5202 359.6684 354.7131 4.4859 0.0697 6.1942 339.2221 359.7040 358.6139 11.3857 358.7087 341.5138 358.0931 11.5711 299.1275 26.3760 7.6673 16.9602 353.4683 318.8955 84.7724 354.8840 344.6820 18.5418 359.1372 354.6742 32.9247 47.7467 34.0151 329.5268 349.0276 39.2640 273.9485 347.7291 6.8904 0.7478 353.8235 358.2864 356.9142 20.4054 355.5404 358.1985 346.1549 24.2151 3.5591 341.4835 2.0890 0.0628 36.9077 9.9531 352.5675 340.3757 334.7969 
2.4103 87.4691 59.4762 1.3181 0.2032 182.0097 2.7297 7.3821 359.5087 354.6913 4.5944 359.8830 6.2619 339.0679 359.6782 358.8004 11.4577 358.6397 341.4671 358.1086 11.3836 299.2197 26.2581 7.7637 16.9887 353.5395 319.1725 84.8151 354.8599 344.6910 18.5960 359.1243 354.5636 32.3812 47.8277 34.4342 330.0917 349.2195 39.4695 274.0560 347.8770 7.8256 0.6962 354.3870 358.2974 356.7722 20.4361 355.4737 357.9497 345.7527 23.9198 3.2725 340.7557 2.0007 0.5224 39.0484 9.2436 352.4898 339.9093 334.8285 
2.3375 87.2926 58.8643 1.1156 0.4160 182.1250 2.2704 7.3595 359.4161 354.7509 4.7082 359.7718 6.3560 338.9155 359.6110 358.8315 11.5441 358.5400 341.2873 358.0826 11.5261 299.3862 28.2987 7.5723 18.2101 352.9636 320.0892 84.5044 354.7560 346.0580 18.6140 359.1062 354.4123 32.3292 47.7419 34.3442 330.7628 349.4163 39.9336 273.8661 348.0729 8.5309 0.5482 355.0981 358.2440 356.6174 20.3263 355.4473 358.0764 345.3582 23.8343 2.8197 340.1325 1.9307 1.2323 41.1354 8.1455 352.9523 339.3616 335.1328 
2.2496 87.1275 58.2428 0.8834 0.6446 182.2703 1.8654 7.3397 359.3049 354.7661 4.8885 359.6468 6.3631 338.7303 359.5574 358.8885 11.6366 358.4715 341.1364 358.0610 11.5786 299.5970 29.6046 7.2725 18.9965 352.7107 320.7150 84.4602 354.6822 347.0227 18.6003 359.0808 354.2558 32.4250 47.7566 34.1509 331.3029 349.5184 40.3258 273.9287 348.1404 9.1916 0.3476 355.8346 358.1816 356.5005 20.2029 355.3068 358.2336 344.9577 23.8725 2.2744 339.5470 1.8340 2.1345 43.1028 6.8223 353.3555 338.9239 335.4417 
2.1537 86.9742 57.6331 0.6180 0.7781 182.4687 1.4484 7.2723 359.2066 354.8309 5.0331 359.5259 6.2186 338.6038 359.4068 358.9674 11.6722 358.3326 340.9795 358.0611 11.2835 299.8750 29.7803 6.9992 19.0763 352.9080 320.9127 84.7812 354.6163 347.2719 18.5403 359.0430 353.8902 32.5659 47.9512 33.9969 331.6154 349.5214 40.5334 274.2653 348.0927 9.7932 0.0834 356.4334 358.1430 356.4476 20.1397 355.0053 358.3726 344.5531 24.0513 1.6282 338.8793 1.6437 3.0462 44.9465 5.6831 353.9106 338.5440 335.5395 
2.0641 86.8361 57.0253 0.4000 0.8535 182.7454 1.1635 7.2533 359.0467 354.8183 4.9421 359.3348 6.1014 338.6756 359.2842 359.0300 11.7203 358.2291 340.6875 358.0347 11.4444 300.3264 32.0343 6.5151 20.1696 352.4872 321.7849 84.8930 354.5651 348.7843 18.6295 358.9860 353.5591 32.9682 48.1891 33.4395 331.9341 349.5404 40.8085 274.6546 348.1311 10.2276 359.8521 356.9792 358.0698 356.4411 20.0345 354.5740 358.3533 344.1109 24.4085 0.9638 338.2212 1.3219 4.0433 46.3906 4.1608 354.4782 338.1645 335.8571 
1.9864 86.6969 56.3879 0.2059 0.9028 183.0759 0.9621 7.2287 358.8726 354.7226 4.7562 359.1566 6.0969 338.9390 359.1633 359.0210 11.6830 358.1212 340.3227 357.9951 11.3373 300.8918 33.3214 6.1313 20.8677 352.3889 322.3712 85.2296 354.6165 349.8759 18.8309 358.9141 353.2695 33.4629 48.7153 32.6288 332.0576 349.4890 40.9979 274.7358 348.0689 10.5164 359.6489 357.5132 357.9223 356.4422 19.8751 354.7005 358.2331 343.7193 24.1423 0.2588 337.5938 0.9205 5.0203 47.4220 2.7825 354.5462 338.0394 336.1873 
1.9063 86.5843 55.7198 0.0645 0.9542 183.4138 0.8478 7.1709 358.7377 354.6615 4.6744 359.0055 6.0008 339.0906 359.0259 359.0250 11.7803 358.0098 339.9807 357.9743 11.1924 301.5210 34.1934 5.5050 21.3597 352.3970 322.8328 85.5029 354.7319 350.7819 18.9530 358.8566 352.9600 34.4047 49.0208 31.4239 332.3376 349.5264 41.3686 274.3381 348.0553 10.7680 359.4864 358.0940 357.7888 356.4899 19.6866 354.6334 358.2607 343.4221 24.0070 359.5876 337.0379 0.5736 5.9733 48.0741 1.9108 355.3090 337.6563 336.3629 
1.8372 86.5035 55.0667 359.9999 0.9067 183.7118 0.9230 7.1274 358.5407 354.5227 4.4134 358.8090 5.7104 339.3306 358.9024 359.2316 11.9248 357.9400 339.6828 357.9588 11.1586 302.1030 35.1309 4.7729 21.8734 352.3483 323.3200 85.6420 354.7549 351.4080 19.0879 358.7994 352.6667 35.4720 49.4330 30.0367 332.6071 349.5602 41.6657 273.9842 348.0474 10.8964 359.3961 358.5859 357.7561 356.5929 19.4741 354.3658 358.5296 343.2648 24.0262 359.0530 336.3672 0.1305 6.5213 48.4147 1.4177 356.1597 337.3479 336.6588 
1.7811 86.4475 54.4219 0.0075 0.8305 183.9091 1.0409 7.0338 358.4190 354.4082 4.2578 358.6903 5.5750 339.4914 358.8619 359.3575 12.0528 357.9255 339.4318 357.9404 11.1577 302.7214 35.6221 3.7875 22.0955 352.4407 323.6912 85.9303 354.7831 351.5098 19.2112 358.7664 352.5543 37.0966 49.3866 28.0860 333.0809 349.6901 42.1373 274.0232 347.9635 11.5149 359.3944 359.1137 357.7381 356.6696 19.1172 354.2746 358.6621 343.1401 23.9436 358.6807 335.6415 359.7475 6.7899 48.4300 1.0511 356.3442 337.2964 336.7639 
